<svg width="290" height="340" viewBox="0 0 290 340" fill="none" xmlns="http://www.w3.org/2000/svg">
<g id="map">
<path id="Oval" fill-rule="evenodd" clip-rule="evenodd" d="M31.1078 82.4471C46.6313 82.4471 59.2156 71.7168 59.2156 58.4803C59.2156 45.2438 46.6313 34.5134 31.1078 34.5134C15.5843 34.5134 3 45.2438 3 58.4803C3 71.7168 15.5843 82.4471 31.1078 82.4471Z" stroke="#FBA35A" stroke-width="6" stroke-linecap="round" stroke-linejoin="round"/>
<path id="Oval_2" fill-rule="evenodd" clip-rule="evenodd" d="M168.179 51.7911C183.703 51.7911 196.287 41.0608 196.287 27.8243C196.287 14.5877 183.703 3.85742 168.179 3.85742C152.656 3.85742 140.071 14.5877 140.071 27.8243C140.071 41.0608 152.656 51.7911 168.179 51.7911Z" stroke="#FBA35A" stroke-width="6" stroke-linecap="round" stroke-linejoin="round"/>
<path id="Oval_3" fill-rule="evenodd" clip-rule="evenodd" d="M258.802 114.949C274.326 114.949 286.91 104.219 286.91 90.9825C286.91 77.746 274.326 67.0156 258.802 67.0156C243.279 67.0156 230.694 77.746 230.694 90.9825C230.694 104.219 243.279 114.949 258.802 114.949Z" stroke="#FBA35A" stroke-width="6" stroke-linecap="round" stroke-linejoin="round"/>
<path id="Path" d="M273.441 206.281C273.182 200.896 271.95 193.766 265.062 192.301C262.576 191.772 260.905 194.174 261.626 195.719C261.419 195.923 261.272 196.166 261.195 196.428C260.301 199.719 261.007 203.599 260.96 206.983C260.902 210.93 260.709 214.872 260.379 218.81C260.191 221.057 259.03 224.408 261.681 225.873C263.941 227.131 266.671 225.907 268.263 224.348C272.727 219.967 273.731 211.927 273.441 206.281Z" fill="#72CBC3"/>
<path id="Path_2" d="M189.007 335.567C188.945 333.982 188.045 332.507 186.559 331.554C182.519 328.443 175.012 323.634 175.012 323.634C175.012 323.634 176.126 263.987 179.272 234.602C179.365 234.017 179.143 233.427 178.668 232.997C178.353 232.432 177.789 231.997 177.099 231.786C168.399 228.903 159.738 225.693 150.764 223.485C141.931 221.325 132.878 220.95 123.746 220.689C114.89 220.442 105.939 220.321 97.2154 221.88C94.1638 222.422 90.3198 222.843 89.2294 225.753C88.0448 228.897 88.3273 232.903 88.4449 236.248C88.184 236.601 88.0403 237.008 88.0292 237.425C86.6563 269.773 84.9775 302.135 84.9775 334.51C84.9775 336.062 86.5465 338.142 88.2017 338.142H185.242C187.509 338.156 189.007 337.54 189.007 335.567Z" fill="#72CBC3"/>
<path id="Path_3" d="M135.49 237.96L132.91 306.001C132.69 311.774 133.396 323.293 133.396 323.293C135.388 326.122 147.681 333.995 148.474 336.002" stroke="#063F58" stroke-width="6" stroke-linecap="round" stroke-linejoin="round"/>
<path id="Path_4" d="M210.086 219.88C210.086 211.359 206.164 202.649 203.505 194.529C197.637 176.602 191.196 158.823 184.183 141.19C177.225 123.699 170.353 105.738 161.363 88.9356C157.73 82.1395 152.647 75.8786 144.653 72.4136C137.31 69.2363 129.089 69.4972 122.288 73.5441C113.76 78.6144 108.104 87.5911 102.425 94.7885C95.3096 103.785 88.3513 114.187 81.8715 123.551C63.6716 149.759 50.6415 171.157 33.9164 199.914C31.563 203.927 29.3508 207.94 29.2959 212.114C29.2096 219.265 35.9874 223.379 43.4164 224.904C52.8302 226.837 62.9028 227.091 72.5048 228.248C93.5524 230.743 114.498 233.867 135.655 235.667C145.916 236.543 156.224 237.111 166.54 237.125C175.954 237.125 186.199 237.319 195.362 235.352C204.32 233.406 210.063 227.901 210.086 219.88Z" fill="#72CBC3"/>
<path id="Path_5" d="M136.714 156.976L144.872 155.886" stroke="#063F58" stroke-width="6" stroke-linecap="round" stroke-linejoin="round"/>
<path id="Path_6" d="M131.074 136.822V141.23" stroke="#063F58" stroke-width="6" stroke-linecap="round" stroke-linejoin="round"/>
<path id="Path_7" d="M154.789 137.29V141.698" stroke="#063F58" stroke-width="6" stroke-linecap="round" stroke-linejoin="round"/>
<path id="Path_8" d="M83.4556 186.328C77.043 190.295 72.441 196.034 70.4332 202.569C69.5389 205.485 74.8342 206.73 75.7285 203.813C76.0047 202.923 76.3346 202.046 76.7169 201.184C77.3299 201.121 77.8913 200.86 78.2859 200.455C79.5182 199.22 80.9976 198.18 82.6554 197.385C83.8082 196.974 84.8536 196.372 85.7305 195.612C87.527 193.713 87.2995 190.656 87.5819 188.348C87.8094 186.663 85.048 185.318 83.4556 186.328Z" fill="#72CBC3"/>
<path id="Path_9" d="M265.518 180.013C266.232 172.461 267.087 165.003 266.122 157.431C265.871 155.478 263.141 155.424 261.799 156.307C260.152 157.431 238.014 173.03 238.014 173.03C238.014 173.03 227.298 168.027 222.113 165.224C221.171 164.716 218.394 165.358 217.853 165.746C212.597 169.532 206.196 173.104 201.434 177.211C198.778 175.595 196.224 173.861 193.785 172.013C191.173 169.859 186.301 164.522 182.3 167.197C175.672 171.625 160.68 178.789 160.68 178.789C155.126 176.314 146.356 167.766 140.182 163.813C136.33 162.722 116.263 171.92 116.263 171.92C111.776 168.736 100.275 160.943 95.2235 158.829C91.96 157.491 88.1632 160.548 87.6454 165.358C87.1277 170.167 85.6372 199.331 85.1586 207.994C84.2565 224.449 79.6673 250.362 79.3457 253.687C79.024 257.011 79.3457 258.924 81.9972 259.954L95.4117 265.225C98.785 266.563 103.39 269.386 107.242 268.864C110.725 268.396 114.302 265.593 117.055 263.834C120.193 261.827 123.284 259.68 126.234 257.426C134.309 261.952 142.153 266.777 149.768 271.901C150.767 272.442 152.073 272.316 152.906 271.6C156.122 268.831 159.334 266.059 162.539 263.285L167.105 259.346C168.274 258.335 169.513 256.871 170.933 256.001C172.392 256.636 173.812 257.941 175.005 258.743L180.731 262.59L191.62 269.908C192.618 270.454 193.928 270.328 194.758 269.607C201.046 264.146 207.94 259.217 215.343 254.891L228.679 262.851C231.338 264.443 235.99 268.837 239.497 267.339C246.729 264.242 255.845 257.546 261.219 252.255C261.855 251.986 262.328 251.5 262.521 250.917C262.868 250.51 263.042 250.015 263.015 249.513C262.681 233.99 262.942 218.467 263.8 202.943C264.229 195.282 264.801 187.639 265.518 180.013Z" fill="#E3D6BD"/>
<path id="Path_10" d="M120.844 198.95C122.829 196.623 120.601 194.141 117.51 194.342C115.793 194.483 114.093 194.744 112.427 195.124C115.587 193.749 118.463 191.941 120.938 189.773C122.288 188.589 122.264 186.375 120.154 185.76C115.18 184.368 110.317 185.679 105.382 186.623L87.2764 190.087C86.9386 190.152 86.6171 190.267 86.3272 190.429C77.8705 191.572 73.1166 197.619 69.4923 204.014L68.9589 204.957C68.1744 204.73 67.3899 204.522 66.6055 204.288L54.2343 200.636C53.5125 199.165 50.8767 198.348 49.394 200.034C38.4741 212.416 21.1058 232.175 37.721 246.476C47.982 255.312 72.9597 259.553 79.6905 246.403C79.7899 246.312 79.8792 246.213 79.9573 246.108L101.499 217.051C101.597 216.912 101.681 216.767 101.75 216.616C104.533 215.8 107.259 214.851 109.916 213.773C112.38 212.763 116.702 211.499 117.895 209.178C118.938 207.171 117.275 205.238 115.008 204.71C114.15 204.518 113.267 204.419 112.38 204.415L112.913 204.208C115.706 202.87 118.969 201.151 120.844 198.95Z" fill="#72CBC3"/>
<path id="Path_11" d="M266.765 223.492C266.522 224.723 265.447 225.907 263.894 225.733C260.756 225.372 240.469 224.054 241.811 218.268C241.661 217.247 242.229 216.246 243.262 215.713C246.165 214.342 249.067 214.609 252.04 214.917C251.915 214.636 251.789 214.362 251.672 214.081C249.852 213.452 248.05 212.783 246.267 212.074C244.07 211.171 240.257 210.201 240.469 207.445C240.807 202.97 247.812 204.288 252.37 205.679C252.37 205.559 252.37 205.445 252.37 205.325C250.487 204.656 248.628 203.987 246.792 203.245C244.321 202.235 240.297 200.335 242.266 197.271C243.89 194.743 248.165 195.632 250.769 196.074C254.221 196.663 262.333 198.081 265.416 199.566C266.333 200.02 268.875 202.562 268.852 203.258C276.084 207.432 268.02 217.004 266.765 223.492Z" fill="#72CBC3"/>
<path id="Path_12" d="M24.4395 48.8343C26.0297 47.0352 28.2581 45.7215 30.7937 45.0884C32.7078 44.6202 34.9907 44.6202 36.4498 45.7574C38.2933 47.2089 38.0187 49.8176 36.8499 51.7173C35.681 53.617 33.8218 55.1488 32.7 57.0685C31.5782 58.9883 31.4291 61.6238 33.3746 62.975" stroke="#FBA35A" stroke-width="6" stroke-linecap="round" stroke-linejoin="round"/>
<path id="Path_13" d="M34.6143 71.1821C35.1247 71.3039 35.4567 71.7229 35.3987 72.1721" stroke="#FBA35A" stroke-width="6" stroke-linecap="round" stroke-linejoin="round"/>
<path id="Path_14" d="M162.264 16.9949C162.586 15.3026 164.484 14.1454 166.383 13.5634C168.281 12.9815 170.47 12.8209 172.117 13.7708C174.471 15.1086 174.557 18.132 173.286 20.2658C172.015 22.3996 169.725 23.9381 167.795 25.6572C165.865 27.3763 164.092 29.5703 164.328 31.9583" stroke="#FBA35A" stroke-width="6" stroke-linecap="round" stroke-linejoin="round"/>
<path id="Path_15" d="M163.119 41.5298V42.5532" stroke="#FBA35A" stroke-width="6" stroke-linecap="round" stroke-linejoin="round"/>
<path id="Path_16" d="M256.073 80.0321C257.569 78.6142 259.867 78.0239 262.033 78.5007C264.199 78.9775 265.875 80.4422 266.38 82.3007C266.884 84.1592 266.135 86.1029 264.435 87.3433C262.49 88.7547 259.626 89.0289 257.806 90.554C256.775 91.5508 256.014 92.7293 255.578 94.0056" stroke="#FBA35A" stroke-width="6" stroke-linecap="round" stroke-linejoin="round"/>
<path id="Path_17" d="M251.585 101.866L251.161 103.565" stroke="#FBA35A" stroke-width="6" stroke-linecap="round" stroke-linejoin="round"/>
<path id="Path_18" d="M52.2021 226.463L54.9478 226.148" stroke="#063F58" stroke-width="6" stroke-linecap="round" stroke-linejoin="round"/>
<path id="Path_19" d="M53.6152 230.222L70.356 201.051C74.6627 193.539 78.6244 185.733 85.4493 183.258" stroke="#063F58" stroke-width="6" stroke-linecap="round" stroke-linejoin="round"/>
<path id="Path_20" d="M134.879 134.762L124.084 134.26" stroke="#063F58" stroke-width="6" stroke-linecap="round" stroke-linejoin="round"/>
<path id="Path_21" d="M161.025 134.508L150.23 134.006" stroke="#063F58" stroke-width="6" stroke-linecap="round" stroke-linejoin="round"/>
</g>
</svg>
